<svg width="40" height="40" viewBox="0 0 40 40" fill="none" xmlns="http://www.w3.org/2000/svg">
<path d="M14.583 7.91667C14.583 8.3769 14.2099 8.75 13.7497 8.75H9.58333C9.1231 8.75 8.75 9.1231 8.75 9.58333V34.1667C8.75 34.6269 9.1231 35 9.58333 35H30.4167C30.8769 35 31.25 34.6269 31.25 34.1667V9.58333C31.25 9.1231 30.8769 8.75 30.4167 8.75H26.2503C25.7901 8.75 25.417 8.3769 25.417 7.91667V7.08333C25.417 6.6231 25.7901 6.25 26.2503 6.25H32.5C32.8315 6.25 33.1494 6.38179 33.3838 6.61621C33.6182 6.85063 33.75 7.16848 33.75 7.5V36.25C33.75 36.9404 33.1904 37.5 32.5 37.5H7.5C6.80965 37.5 6.25 36.9404 6.25 36.25V7.5C6.25 6.80964 6.80965 6.25 7.5 6.25H13.7497C14.2099 6.25 14.583 6.6231 14.583 7.08333V7.91667ZM19.959 14.333C21.4507 14.3331 22.8817 14.9257 23.9365 15.9805C24.9913 17.0353 25.5839 18.4663 25.584 19.958C25.584 21.4497 24.9912 22.8807 23.9365 23.9355C23.7669 24.1052 23.8199 24.4053 24.0405 24.4996C24.4634 24.6804 24.8543 24.8904 25.2148 25.126C26.5219 25.9803 27.3482 27.1161 27.8652 28.2197C28.3784 29.3154 28.5949 30.3938 28.6855 31.1855C28.7312 31.5847 28.7458 31.9205 28.749 32.1611C28.7506 32.2814 28.75 32.3787 28.748 32.4492C28.7471 32.4845 28.7451 32.5136 28.7441 32.5352C28.7437 32.5459 28.7436 32.5554 28.7432 32.5625C28.743 32.5658 28.7433 32.5688 28.7432 32.5713C28.7431 32.5726 28.7423 32.5741 28.7422 32.5752V32.5762C28.7421 32.5769 28.7424 32.578 27.4951 32.5C26.3632 32.4292 26.2578 32.4229 26.248 32.4228C26.2476 32.4228 26.2471 32.4223 26.2471 32.4219C26.2474 32.415 26.2485 32.4015 26.249 32.3818C26.2501 32.3426 26.2502 32.2788 26.249 32.1943C26.2468 32.0249 26.2369 31.7744 26.2021 31.4707C26.1318 30.8562 25.9665 30.0595 25.6016 29.2803C25.2403 28.5091 24.6911 27.7696 23.8467 27.2178C23.0053 26.668 21.7879 26.25 20 26.25C18.2121 26.25 16.9947 26.668 16.1533 27.2178C15.3089 27.7696 14.7597 28.5091 14.3984 29.2803C14.0335 30.0595 13.8682 30.8562 13.7979 31.4707C13.7631 31.7744 13.7532 32.0249 13.751 32.1943C13.7498 32.2788 13.7499 32.3426 13.751 32.3818C13.7515 32.4015 13.7526 32.415 13.7529 32.4219C13.7529 32.4223 13.7524 32.4228 13.752 32.4228C13.7422 32.4229 13.6368 32.4292 12.5049 32.5C11.2576 32.578 11.2579 32.5769 11.2578 32.5762V32.5752C11.2577 32.5741 11.2569 32.5726 11.2568 32.5713C11.2567 32.5688 11.257 32.5658 11.2568 32.5625C11.2564 32.5554 11.2563 32.5459 11.2559 32.5352C11.2549 32.5136 11.2529 32.4845 11.252 32.4492C11.25 32.3787 11.2494 32.2814 11.251 32.1611C11.2542 31.9205 11.2688 31.5847 11.3145 31.1855C11.4051 30.3938 11.6216 29.3154 12.1348 28.2197C12.6518 27.1161 13.4781 25.9803 14.7852 25.126C15.1213 24.9063 15.4837 24.7088 15.8739 24.5365C16.1061 24.434 16.1609 24.115 15.9814 23.9355C14.9266 22.8807 14.334 21.4499 14.334 19.958C14.3341 18.4663 14.9266 17.0353 15.9814 15.9805C17.0363 14.9258 18.4673 14.333 19.959 14.333ZM19.959 16.833C19.1304 16.833 18.335 17.1622 17.749 17.748C17.163 18.334 16.8341 19.1293 16.834 19.958C16.834 20.7868 17.163 21.5819 17.749 22.168C18.3351 22.754 19.1302 23.083 19.959 23.083C20.7876 23.0829 21.583 22.7539 22.1689 22.168C22.7548 21.582 23.084 20.7866 23.084 19.958C23.0839 19.1294 22.7549 18.334 22.1689 17.748C21.583 17.1621 20.7876 16.8331 19.959 16.833ZM22.916 2.5C23.6064 2.5 24.166 3.05964 24.166 3.75V11.25C24.166 11.9404 23.6064 12.5 22.916 12.5H17.083C16.3928 12.4998 15.833 11.9402 15.833 11.25V3.75C15.833 3.05975 16.3928 2.50018 17.083 2.5H22.916ZM18.333 9.16667C18.333 9.6269 18.7061 10 19.1663 10H20.8327C21.2929 10 21.666 9.6269 21.666 9.16667V5.83333C21.666 5.3731 21.2929 5 20.8327 5H19.1663C18.7061 5 18.333 5.3731 18.333 5.83333V9.16667Z" fill="#304833"/>
</svg>
