<svg width="24" height="24" viewBox="0 0 24 24" fill="none" xmlns="http://www.w3.org/2000/svg">
<path fill-rule="evenodd" clip-rule="evenodd" d="M20.7897 14.2257C21.0842 14.517 21.0889 14.9925 20.7818 15.2704C19.1746 16.7252 16.1851 18.7501 11.9841 18.7502C7.78284 18.7501 4.7926 16.7251 3.18538 15.2704C2.87829 14.9925 2.88301 14.517 3.1775 14.2257C3.47197 13.9345 3.94529 13.9387 4.25413 14.2146C5.70815 15.5137 8.33588 17.2501 11.9841 17.2502C15.6321 17.2501 18.2592 15.5137 19.7131 14.2146C20.0219 13.9386 20.4952 13.9345 20.7897 14.2257ZM11.9841 9.25016C14.0552 9.25017 15.7341 10.9291 15.7341 13.0002C15.7339 15.0711 14.0551 16.7502 11.9841 16.7502C9.91313 16.7502 8.23425 15.0711 8.2341 13.0002C8.2341 10.9291 9.91303 9.25016 11.9841 9.25016ZM11.9841 10.7502C10.7415 10.7502 9.7341 11.7575 9.7341 13.0002C9.73425 14.2427 10.7416 15.2502 11.9841 15.2502C13.2266 15.2502 14.2339 14.2427 14.2341 13.0002C14.2341 11.7575 13.2267 10.7502 11.9841 10.7502ZM14.7224 4.50016C15.1285 4.5816 15.3917 4.97686 15.3102 5.38295L15.1966 5.9488C15.0902 6.47895 15.426 6.99385 15.9423 7.15449C16.351 7.28166 16.7513 7.42806 17.1421 7.59247C17.6219 7.79431 18.1874 7.63691 18.459 7.1929L18.8153 6.61061C19.0315 6.25732 19.4932 6.14621 19.8464 6.36247C20.2001 6.57869 20.3114 7.04082 20.0948 7.39433L19.7848 7.90039C19.5025 8.36129 19.6402 8.96011 20.0697 9.28824C20.3787 9.52431 20.6771 9.77358 20.964 10.0352C21.2701 10.3144 21.2641 10.791 20.9685 11.0812C20.6723 11.3709 20.1989 11.3639 19.8909 11.0869C17.7949 9.20191 15.0235 8.0569 11.9841 8.0568C8.94462 8.05688 6.17309 9.20287 4.07693 11.0875C3.76918 11.3642 3.29629 11.3709 3.0007 11.0812C2.70509 10.791 2.69919 10.3144 3.00519 10.0352C3.29153 9.77389 3.58927 9.52482 3.89766 9.28893C4.32664 8.96081 4.46442 8.3626 4.18274 7.90178L3.87215 7.39369C3.65618 7.04037 3.76735 6.57887 4.12052 6.36265C4.47393 6.14629 4.93582 6.25745 5.15209 6.61091L5.50812 7.19279C5.77983 7.63685 6.34535 7.79423 6.82523 7.59244C7.21635 7.42798 7.61694 7.28159 8.02599 7.15441C8.54228 6.99388 8.87801 6.47901 8.77162 5.9489L8.65806 5.38303C8.57655 4.9769 8.83975 4.58159 9.2459 4.50015C9.65199 4.41872 10.0472 4.68188 10.1287 5.08797L10.2602 5.74347C10.3624 6.25342 10.8386 6.59568 11.3581 6.57142C11.5656 6.56174 11.7743 6.55681 11.9841 6.5568C12.1939 6.55681 12.4026 6.56176 12.61 6.57146C13.1291 6.59576 13.605 6.25399 13.7076 5.74448L13.8401 5.08699C13.9218 4.68138 14.3167 4.41871 14.7224 4.50016Z" fill="#304833"/>
</svg>
