<svg width="365" height="44" viewBox="0 0 365 44" fill="none" xmlns="http://www.w3.org/2000/svg">
<g filter="url(#filter0_d_807_36)">
<path d="M219.308 29.4493C215.444 29.4493 212.127 27.1315 210.697 23.8234L207.68 28.9986C207.516 29.2684 207.218 29.4488 206.877 29.4488C206.534 29.4488 206.233 29.2665 206.07 28.9939L197.145 13.6859C196.628 12.7989 196.935 11.6647 197.831 11.1526C198.726 10.6405 199.872 10.9444 200.389 11.8314L206.876 22.9575L211.093 15.724C212.684 12.8513 215.766 10.9038 219.308 10.9038C222.372 10.9038 225.092 12.3609 226.8 14.6135C229.601 10.9057 234.823 9.77485 238.974 12.1477C239.869 12.6598 240.176 13.794 239.659 14.681C239.142 15.568 237.997 15.872 237.101 15.3598C234.414 13.8235 230.978 14.7352 229.426 17.3963C227.875 20.0573 228.795 23.46 231.483 24.9963C234.16 26.5274 237.582 25.6272 239.141 22.9873L245.922 11.354C246.085 11.0843 246.384 10.9038 246.725 10.9038C247.068 10.9038 247.369 11.0861 247.532 11.3587L255.637 25.2608C255.642 25.2671 255.647 25.2765 255.649 25.2791C255.811 25.5548 256.113 25.7402 256.459 25.7402H258.05V12.7584C258.05 11.7341 258.889 10.9038 259.923 10.9038C260.957 10.9038 261.796 11.7341 261.796 12.7584V24.8129C261.796 25.325 262.215 25.7402 262.732 25.7402H269.404C270.438 25.7402 271.277 26.5705 271.277 27.5947C271.277 28.619 270.438 29.4493 269.404 29.4493H254.832C254.186 29.4476 253.559 29.1147 253.213 28.5213L246.726 17.3952L242.401 24.8144C239.815 29.2495 234.088 30.7691 229.61 28.2085C228.478 27.5616 227.535 26.7162 226.798 25.7424C225.09 27.9934 222.371 29.4493 219.308 29.4493ZM214.459 17.3646L214.461 17.3653L214.373 17.5162C213.937 18.3065 213.69 19.2129 213.69 20.1765C213.69 23.2493 216.205 25.7402 219.308 25.7402C222.411 25.7402 224.926 23.2493 224.926 20.1765C224.926 17.1038 222.411 14.6129 219.308 14.6129C217.241 14.6129 215.435 15.7182 214.459 17.3646Z" fill="white"/>
<path fill-rule="evenodd" clip-rule="evenodd" d="M347.914 26.7159C351.545 26.7159 354.488 23.8012 354.488 20.2058C354.488 16.6103 351.545 13.6956 347.914 13.6956C344.284 13.6956 341.341 16.6103 341.341 20.2058C341.341 23.8012 344.284 26.7159 347.914 26.7159ZM347.914 29.5077C353.102 29.5077 357.306 25.3431 357.306 20.2058C357.306 15.0684 353.102 10.9038 347.914 10.9038C342.727 10.9038 338.522 15.0684 338.522 20.2058C338.522 25.3431 342.727 29.5077 347.914 29.5077Z" fill="white"/>
<path d="M297.758 28.1117C297.758 28.8823 297.128 29.507 296.35 29.507C295.573 29.507 294.942 28.8823 294.942 28.1117V12.2988C294.942 11.5282 295.573 10.9036 296.35 10.9036C297.128 10.9036 297.758 11.5282 297.758 12.2988V28.1117ZM304.004 29.507C303.485 29.507 303.065 29.0905 303.065 28.5768V11.8337C303.065 11.32 303.485 10.9036 304.004 10.9036H308.227C313.411 10.9036 317.613 15.0681 317.613 20.2053C317.613 25.3425 313.411 29.507 308.227 29.507H304.004ZM308.227 26.7165C311.856 26.7165 314.797 23.8013 314.797 20.2053C314.797 16.6092 311.856 13.6941 308.227 13.6941H305.881V26.7165H308.227ZM280.45 29.507C280.446 29.507 280.443 29.507 280.439 29.507C280.435 29.507 280.431 29.507 280.427 29.507C280.072 29.4981 279.765 29.2938 279.614 28.9985L270.291 12.9967C269.903 12.3293 270.133 11.476 270.807 11.0907C271.48 10.7054 272.341 10.9341 272.73 11.6014L280.439 24.8338L288.147 11.6014C288.536 10.9341 289.397 10.7054 290.071 11.0907C290.744 11.476 290.975 12.3293 290.586 12.9967L281.264 28.9985C281.112 29.2938 280.806 29.4981 280.45 29.5067V29.507ZM331.032 13.6941C327.404 13.6941 324.462 16.6092 324.462 20.2053C324.462 23.8013 327.404 26.7165 331.032 26.7165H332.909C333.687 26.7165 334.317 27.3411 334.317 28.1117C334.317 28.8823 333.687 29.507 332.909 29.507H331.032C325.849 29.507 321.647 25.3425 321.647 20.2053C321.647 15.0681 325.849 10.9036 331.032 10.9036H332.909C333.687 10.9036 334.317 11.5282 334.317 12.2988C334.317 13.0694 333.687 13.6941 332.909 13.6941H331.032ZM332.909 18.81C333.687 18.81 334.317 19.4347 334.317 20.2053C334.317 20.9759 333.687 21.6005 332.909 21.6005H328.686C327.908 21.6005 327.278 20.9759 327.278 20.2053C327.278 19.4347 327.908 18.81 328.686 18.81H332.909Z" fill="white"/>
<path d="M159.606 5.99635L159.606 22.8886C159.606 23.3148 159.72 23.7334 159.937 24.1025C160.62 25.2636 162.132 25.6614 163.315 24.9911L178.218 16.5449L183.111 19.3179C184.057 19.8542 184.381 21.042 183.835 21.9709C183.661 22.2662 183.411 22.5113 183.111 22.6818L154.778 38.7395C153.831 39.2758 152.621 38.9575 152.075 38.0286C151.901 37.7334 151.81 37.3984 151.81 37.0575V4.94216C151.81 3.86953 152.696 3 153.789 3C154.136 3 154.477 3.08974 154.778 3.2602L159.606 5.99635Z" fill="white"/>
<path d="M161.075 6.7063L176.635 15.5765L162.551 23.6054C162.08 23.8737 161.478 23.7145 161.207 23.2498C161.12 23.1021 161.075 22.9346 161.075 22.7641V6.7063Z" fill="white" fill-opacity="0.7"/>
<path d="M358.407 26.4697H358.857C359.11 26.4697 359.264 26.6102 359.264 26.8393C359.264 27.073 359.119 27.2074 358.866 27.2074H358.407V26.4697ZM358.407 27.5206H358.848L359.284 28.3469H359.739L359.253 27.4595C359.519 27.3648 359.673 27.1219 359.673 26.8317C359.673 26.4086 359.38 26.1428 358.913 26.1428H358.009V28.3469H358.407V27.5206Z" fill="white"/>
<path fill-rule="evenodd" clip-rule="evenodd" d="M358.774 29.0081C359.757 29.0081 360.554 28.2187 360.554 27.2449C360.554 26.271 359.757 25.4816 358.774 25.4816C357.791 25.4816 356.993 26.271 356.993 27.2449C356.993 28.2187 357.791 29.0081 358.774 29.0081ZM358.774 29.4489C360.003 29.4489 360.999 28.4621 360.999 27.2449C360.999 26.0276 360.003 25.0408 358.774 25.0408C357.545 25.0408 356.548 26.0276 356.548 27.2449C356.548 28.4621 357.545 29.4489 358.774 29.4489Z" fill="white"/>
<path d="M11.1861 29C14.838 29 17.3655 26.9973 17.8474 23.6881H15.1379C14.7095 25.5515 13.2423 26.6546 11.1968 26.6546C8.51941 26.6546 6.82731 24.4806 6.82731 21.0107C6.82731 17.5622 8.53012 15.3775 11.1861 15.3775C13.1888 15.3775 14.7631 16.6519 15.1272 18.5904H17.8474C17.5047 15.2704 14.7738 13.0321 11.1861 13.0321C6.79518 13.0321 4 16.0843 4 21.0107C4 25.9692 6.77376 29 11.1861 29Z" fill="white"/>
<path d="M20.1174 28.743H22.784V22.1995C22.784 20.593 23.6943 19.6185 25.2044 19.6185C25.6542 19.6185 26.0611 19.6827 26.286 19.7684V17.3588C26.0826 17.3052 25.7934 17.2624 25.4507 17.2624C24.112 17.2624 23.0946 18.0335 22.7305 19.3722H22.6769V17.3909H20.1174V28.743Z" fill="white"/>
<path d="M32.5614 19.2865C34.0714 19.2865 35.121 20.3467 35.1745 21.9531H29.8733C29.9804 20.3681 31.0728 19.2865 32.5614 19.2865ZM35.1852 25.3481C34.8961 26.2691 33.9215 26.8474 32.7113 26.8474C30.9978 26.8474 29.8519 25.6586 29.8519 23.8701V23.7095H37.7876V22.842C37.7876 19.3936 35.7528 17.2195 32.5507 17.2195C29.295 17.2195 27.1959 19.5221 27.1959 23.1098C27.1959 26.6975 29.2736 28.9143 32.6578 28.9143C35.3137 28.9143 37.3485 27.4685 37.6805 25.3481H35.1852Z" fill="white"/>
<path d="M44.0951 26.8902C42.9063 26.8902 42.1353 26.2798 42.1353 25.3802C42.1353 24.4699 42.8635 23.9344 44.2557 23.838L46.8153 23.6774V24.5341C46.8153 25.8835 45.6266 26.8902 44.0951 26.8902ZM43.2919 28.9036C44.7912 28.9036 46.1942 28.1432 46.826 26.9331H46.8796V28.743H49.4499V20.9572C49.4499 18.6975 47.5864 17.2195 44.7377 17.2195C42.0282 17.2195 40.1005 18.7082 40.0255 20.7965H42.4887C42.66 19.8969 43.4847 19.2972 44.6413 19.2972C46.0121 19.2972 46.8153 19.9505 46.8153 21.1392V21.9424L43.8809 22.1245C41.0215 22.2959 39.4579 23.4632 39.4579 25.4873C39.4579 27.5114 41.0643 28.9036 43.2919 28.9036Z" fill="white"/>
<path d="M52.7801 14.7349V17.3909H51.1522V19.4471H52.7801V25.7122C52.7801 27.9183 53.7439 28.7965 56.1964 28.7965C56.764 28.7965 57.2888 28.7537 57.5779 28.6894V26.6546C57.4066 26.676 57.0639 26.7082 56.8176 26.7082C55.8751 26.7082 55.4467 26.2691 55.4467 25.3373V19.4471H57.5886V17.3909H55.4467V14.7349H52.7801Z" fill="white"/>
<path d="M64.528 19.2865C66.038 19.2865 67.0875 20.3467 67.1411 21.9531H61.8399C61.947 20.3681 63.0394 19.2865 64.528 19.2865ZM67.1518 25.3481C66.8626 26.2691 65.8881 26.8474 64.6779 26.8474C62.9644 26.8474 61.8185 25.6586 61.8185 23.8701V23.7095H69.7542V22.842C69.7542 19.3936 67.7194 17.2195 64.5173 17.2195C61.2616 17.2195 59.1625 19.5221 59.1625 23.1098C59.1625 26.6975 61.2402 28.9143 64.6244 28.9143C67.2803 28.9143 69.3151 27.4685 69.6471 25.3481H67.1518Z" fill="white"/>
<path d="M76.1581 28.8715C77.818 28.8715 79.1246 28.079 79.7458 26.8046H79.7886V28.743H82.4017V13.2892H79.735V19.2972H79.6708C79.0711 18.0442 77.7859 17.2624 76.1581 17.2624C73.3308 17.2624 71.4459 19.5221 71.4459 23.0562C71.4459 26.6011 73.3308 28.8715 76.1581 28.8715ZM76.9613 19.4578C78.6427 19.4578 79.7458 20.8929 79.7458 23.0669C79.7458 25.2517 78.6427 26.6653 76.9613 26.6653C75.2692 26.6653 74.1768 25.2731 74.1768 23.0669C74.1768 20.8715 75.2692 19.4578 76.9613 19.4578Z" fill="white"/>
<path d="M105.308 17.3909H102.674L100.757 26.1084H100.693L98.4758 17.3909H95.9162L93.6994 26.1084H93.6458L91.7288 17.3909H89.0515L92.1251 28.743H94.9096L97.1371 20.4431H97.1907L99.429 28.743H102.235L105.308 17.3909Z" fill="white"/>
<path d="M107.139 28.743H109.806V17.3909H107.139V28.743ZM108.467 15.9023C109.292 15.9023 109.956 15.2597 109.956 14.4565C109.956 13.6319 109.292 13 108.467 13C107.653 13 106.989 13.6319 106.989 14.4565C106.989 15.2597 107.653 15.9023 108.467 15.9023Z" fill="white"/>
<path d="M113.222 14.7349V17.3909H111.594V19.4471H113.222V25.7122C113.222 27.9183 114.186 28.7965 116.638 28.7965C117.206 28.7965 117.731 28.7537 118.02 28.6894V26.6546C117.848 26.676 117.506 26.7082 117.259 26.7082C116.317 26.7082 115.889 26.2691 115.889 25.3373V19.4471H118.031V17.3909H115.889V14.7349H113.222Z" fill="white"/>
<path d="M120.365 28.743H123.031V22.2744C123.031 20.6037 124.006 19.49 125.612 19.49C127.155 19.49 127.947 20.4431 127.947 22.0281V28.743H130.614V21.4819C130.614 18.8902 129.147 17.241 126.641 17.241C124.906 17.241 123.717 17.9692 123.053 19.3722H122.999V13.2892H120.365V28.743Z" fill="white"/>
</g>
<defs>
<filter id="filter0_d_807_36" x="0" y="0" width="364.999" height="44" filterUnits="userSpaceOnUse" color-interpolation-filters="sRGB">
<feFlood flood-opacity="0" result="BackgroundImageFix"/>
<feColorMatrix in="SourceAlpha" type="matrix" values="0 0 0 0 0 0 0 0 0 0 0 0 0 0 0 0 0 0 127 0" result="hardAlpha"/>
<feOffset dy="1"/>
<feGaussianBlur stdDeviation="2"/>
<feComposite in2="hardAlpha" operator="out"/>
<feColorMatrix type="matrix" values="0 0 0 0 0 0 0 0 0 0 0 0 0 0 0 0 0 0 0.25 0"/>
<feBlend mode="normal" in2="BackgroundImageFix" result="effect1_dropShadow_807_36"/>
<feBlend mode="normal" in="SourceGraphic" in2="effect1_dropShadow_807_36" result="shape"/>
</filter>
</defs>
</svg>
