<svg width="375" height="459" viewBox="0 0 375 459" fill="none" xmlns="http://www.w3.org/2000/svg">
<path d="M-24.8404 168.625L24.946 175.35L42.1637 234.787L-1.28541 301.878" stroke="#BBC0B9" stroke-width="6.40043" stroke-linecap="round" stroke-linejoin="round"/>
<path d="M-7.4545 73.4987L-3.91445 69.5954L-6.16685 49.2228L20.0744 15.72L30.9498 27.1676L30.3067 29.4267" stroke="#BBC0B9" stroke-width="6.40043" stroke-linecap="round" stroke-linejoin="round"/>
<path d="M20.9663 68.9824L20.1302 65.2105L25.1387 47.6172" stroke="#BBC0B9" stroke-width="6.40043" stroke-linecap="round" stroke-linejoin="round"/>
<path d="M16.2999 118.465L14.2095 94.9979L21.9855 87.9278" stroke="#BBC0B9" stroke-width="6.40043" stroke-linecap="round" stroke-linejoin="round"/>
<path d="M80.0699 178.385L66.1641 185.599L54.3459 166.17L54.8373 146.399L31.625 129.569" stroke="#D8DBD7" stroke-width="6.40043" stroke-linecap="round" stroke-linejoin="round"/>
<path d="M110.775 133.647L85.6323 139.752L105.351 165.277L88.3616 174.089" stroke="#D8DBD7" stroke-width="6.40043" stroke-linecap="round" stroke-linejoin="round"/>
<path d="M190.121 173.587L137.582 132.657" stroke="#BBC0B9" stroke-width="6.40043" stroke-linecap="round" stroke-linejoin="round"/>
<path d="M225.984 186.124L215.018 172.72L198.728 180.294" stroke="#BBC0B9" stroke-width="6.40043" stroke-linecap="round" stroke-linejoin="round"/>
<path d="M257.274 113.15L276.433 135.601L291.327 177.746L266.216 198.228L253.973 173.541L235.833 181.693" stroke="#BBC0B9" stroke-width="6.40043" stroke-linecap="round" stroke-linejoin="round"/>
<path d="M241.5 81.9731L238.794 91.4777L244.884 98.6147" stroke="#BBC0B9" stroke-width="6.40043" stroke-linecap="round" stroke-linejoin="round"/>
<path d="M207.75 61.1655L223.224 58.1375L246.401 64.7356" stroke="#BBC0B9" stroke-width="6.40043" stroke-linecap="round" stroke-linejoin="round"/>
<path d="M151.264 10.5278L150.478 40.6366L184.455 65.7283L189.093 64.8192" stroke="#BBC0B9" stroke-width="6.40043" stroke-linecap="round" stroke-linejoin="round"/>
<path d="M177.923 -10.6552L195.75 -5.58009L183.553 19.2173L211.501 27.1734L232.262 10.5975L244.742 14.1503L254.019 37.9865L270.138 31.0159L260.443 6.40846L276.229 5.11943L279.844 9.88165" stroke="#BBC0B9" stroke-width="6.40043" stroke-linecap="round" stroke-linejoin="round"/>
<path d="M320.199 76.3374L305.132 61.534L311.75 51.8518L295.855 30.9434" stroke="#BBC0B9" stroke-width="6.40043" stroke-linecap="round" stroke-linejoin="round"/>
<path d="M354.71 109.971L356.926 87.2035L342.574 76.6962L327.214 83.2438" stroke="#BBC0B9" stroke-width="6.40043" stroke-linecap="round" stroke-linejoin="round"/>
<path d="M350.118 157.372L352 138.017" stroke="#BBC0B9" stroke-width="6.40043" stroke-linecap="round" stroke-linejoin="round"/>
<path d="M319.213 200.781L328.261 185.689L347.272 186.602L349.214 166.619" stroke="#BBC0B9" stroke-width="6.40043" stroke-linecap="round" stroke-linejoin="round"/>
<path d="M362.543 262.721L351.83 260.656L358.04 238.84L335.292 240.888L312.176 212.52L314.23 209.085" stroke="#BBC0B9" stroke-width="6.40043" stroke-linecap="round" stroke-linejoin="round"/>
<path d="M446.158 299.409L428.665 276.323L435.692 251.638L401.083 238.058L392.42 268.487L380.632 266.216" stroke="#D8DBD7" stroke-width="6.40043" stroke-linecap="round" stroke-linejoin="round"/>
<path d="M330.49 210.939L381.621 184.748" stroke="#BBC0B9" stroke-width="6.40043" stroke-linecap="round" stroke-linejoin="round"/>
<path d="M130.078 106.493C158.041 115.258 195.388 134.402 230.794 169.184" stroke="#BBC0B9" stroke-width="6.40043" stroke-linecap="round" stroke-linejoin="round"/>
<path d="M5.69922 69.8022C23.2045 79.2573 40.3004 87.2053 54.6685 90.7101C66.306 93.5442 76.06 94.1582 92.725 97.2853" stroke="#BBC0B9" stroke-width="6.40043" stroke-linecap="round" stroke-linejoin="round"/>
<path d="M96.1317 -17.561L85.9129 -15.9118L81.8458 8.09878" stroke="#BBC0B9" stroke-width="6.40043" stroke-linecap="round" stroke-linejoin="round"/>
<path d="M65.7928 102.948L63.8406 114.458L51.6406 131.434" stroke="#BBC0B9" stroke-width="6.40043" stroke-linecap="round" stroke-linejoin="round"/>
<path d="M80.2656 17.4536L69.0511 83.6833" stroke="#BBC0B9" stroke-width="6.40043" stroke-linecap="round" stroke-linejoin="round"/>
<path d="M16.25 188.558L21.4294 210.617" stroke="#BBC0B9" stroke-width="6.40043" stroke-linecap="round" stroke-linejoin="round"/>
<path d="M101.173 102.404C102.873 102.888 104.643 101.902 105.127 100.202C105.611 98.5021 104.625 96.7317 102.926 96.2478C101.226 95.7639 99.4554 96.7496 98.9714 98.4495C98.4875 100.149 99.4732 101.92 101.173 102.404Z" fill="#BBC0B9"/>
<path d="M110.523 104.253C112.223 104.737 113.993 103.751 114.477 102.051C114.961 100.351 113.975 98.5809 112.275 98.0969C110.575 97.613 108.805 98.5987 108.321 100.299C107.837 101.999 108.823 103.769 110.523 104.253Z" fill="#BBC0B9"/>
<path d="M119.909 106.564C121.609 107.048 123.38 106.063 123.864 104.363C124.348 102.663 123.362 100.892 121.662 100.408C119.962 99.9245 118.192 100.91 117.708 102.61C117.224 104.31 118.21 106.08 119.909 106.564Z" fill="#BBC0B9"/>
<path d="M118.982 134.168C120.682 134.652 122.452 133.666 122.936 131.966C123.42 130.266 122.434 128.496 120.734 128.012C119.034 127.528 117.264 128.514 116.78 130.214C116.296 131.914 117.282 133.684 118.982 134.168Z" fill="#BBC0B9"/>
<path d="M127.825 132.167C129.525 132.651 131.296 131.665 131.78 129.965C132.264 128.265 131.278 126.495 129.578 126.011C127.878 125.527 126.108 126.513 125.624 128.213C125.14 129.913 126.126 131.683 127.825 132.167Z" fill="#BBC0B9"/>
<path d="M23.0325 127.505C24.7324 127.989 26.5027 127.003 26.9866 125.303C27.4706 123.603 26.4849 121.833 24.785 121.349C23.0851 120.865 21.3147 121.851 20.8308 123.551C20.3469 125.25 21.3326 127.021 23.0325 127.505Z" fill="#BBC0B9"/>
<path d="M197.304 65.8846C199.004 66.3685 200.774 65.3828 201.258 63.6829C201.742 61.983 200.756 60.2127 199.056 59.7288C197.357 59.2448 195.586 60.2306 195.102 61.9305C194.618 63.6304 195.604 65.4007 197.304 65.8846Z" fill="#BBC0B9"/>
<path d="M243.255 75.7987C244.955 76.2826 246.725 75.2969 247.209 73.597C247.693 71.8971 246.708 70.1268 245.008 69.6428C243.308 69.1589 241.537 70.1446 241.053 71.8445C240.57 73.5444 241.555 75.3147 243.255 75.7987Z" fill="#BBC0B9"/>
<path d="M249.822 108.663C251.521 109.147 253.292 108.161 253.776 106.461C254.26 104.761 253.274 102.991 251.574 102.507C249.874 102.023 248.104 103.009 247.62 104.709C247.136 106.409 248.122 108.179 249.822 108.663Z" fill="#BBC0B9"/>
<path d="M284.159 19.7679C285.859 20.2518 287.63 19.2661 288.114 17.5662C288.597 15.8663 287.612 14.096 285.912 13.6121C284.212 13.1281 282.442 14.1139 281.958 15.8138C281.474 17.5136 282.46 19.284 284.159 19.7679Z" fill="#BBC0B9"/>
<path d="M289.919 27.4339C291.619 27.9179 293.389 26.9321 293.873 25.2322C294.357 23.5324 293.372 21.762 291.672 21.2781C289.972 20.7942 288.201 21.7799 287.718 23.4798C287.234 25.1797 288.219 26.95 289.919 27.4339Z" fill="#BBC0B9"/>
<path d="M352.976 122.423C354.676 122.907 356.446 121.921 356.93 120.221C357.414 118.521 356.428 116.751 354.728 116.267C353.028 115.783 351.258 116.769 350.774 118.469C350.29 120.168 351.276 121.939 352.976 122.423Z" fill="#BBC0B9"/>
<path d="M371.277 267.676C372.977 268.16 374.747 267.174 375.231 265.474C375.715 263.774 374.729 262.004 373.029 261.52C371.329 261.036 369.559 262.022 369.075 263.721C368.591 265.421 369.577 267.192 371.277 267.676Z" fill="#BBC0B9"/>
<path d="M352.013 131.945C353.713 132.429 355.483 131.443 355.967 129.743C356.451 128.044 355.465 126.273 353.765 125.789C352.066 125.305 350.295 126.291 349.811 127.991C349.327 129.691 350.313 131.461 352.013 131.945Z" fill="#BBC0B9"/>
<path d="M447.808 185.68C415.192 201.835 369.754 223.671 369.754 223.671L363.225 230.969" stroke="#D8DBD7" stroke-width="6.40043" stroke-linecap="round" stroke-linejoin="round"/>
<path d="M373.885 92.8555L366.598 124.254" stroke="#BBC0B9" stroke-width="6.40043" stroke-linecap="round" stroke-linejoin="round"/>
<path d="M372.156 235.013L392.173 229.332" stroke="#BBC0B9" stroke-width="6.40043" stroke-linecap="round" stroke-linejoin="round"/>
<path d="M230.059 150.692L240.14 160.815L252.256 154.528" stroke="#BBC0B9" stroke-width="6.40043" stroke-linecap="round" stroke-linejoin="round"/>
<path d="M164.384 81.8398L192.402 105.421L205.39 91.9896" stroke="#BBC0B9" stroke-width="6.40043" stroke-linecap="round" stroke-linejoin="round"/>
<path d="M201.536 112.559L193.881 122.558L204.378 131.037" stroke="#D8DBD7" stroke-width="6.40043" stroke-linecap="round" stroke-linejoin="round"/>
<path d="M244.06 122.581L237.75 116.951" stroke="#BBC0B9" stroke-width="6.40043" stroke-linecap="round" stroke-linejoin="round"/>
<path d="M249.939 132.18C251.639 132.664 253.409 131.678 253.893 129.978C254.377 128.278 253.391 126.508 251.691 126.024C249.991 125.54 248.221 126.526 247.737 128.226C247.253 129.926 248.239 131.696 249.939 132.18Z" fill="#BBC0B9"/>
<path d="M207.234 125.119C208.934 125.603 210.704 124.617 211.188 122.917C211.672 121.217 210.686 119.447 208.986 118.963C207.286 118.479 205.516 119.465 205.032 121.165C204.548 122.865 205.534 124.635 207.234 125.119Z" fill="#BBC0B9"/>
<path d="M211.075 140.238C212.775 140.722 214.546 139.736 215.03 138.036C215.514 136.336 214.528 134.566 212.828 134.082C211.128 133.598 209.358 134.584 208.874 136.283C208.39 137.983 209.376 139.754 211.075 140.238Z" fill="#BBC0B9"/>
<path d="M219.466 146.311C221.166 146.795 222.936 145.809 223.42 144.109C223.904 142.409 222.918 140.639 221.219 140.155C219.519 139.671 217.748 140.657 217.264 142.357C216.78 144.057 217.766 145.827 219.466 146.311Z" fill="#BBC0B9"/>
<path d="M226.197 137.802C227.896 138.286 229.667 137.3 230.151 135.6C230.635 133.9 229.649 132.13 227.949 131.646C226.249 131.162 224.479 132.148 223.995 133.847C223.511 135.547 224.497 137.318 226.197 137.802Z" fill="#BBC0B9"/>
<path d="M232.851 130.134C234.551 130.618 236.321 129.632 236.805 127.932C237.289 126.233 236.303 124.462 234.603 123.978C232.903 123.494 231.133 124.48 230.649 126.18C230.165 127.88 231.151 129.65 232.851 130.134Z" fill="#D8DBD7"/>
<path d="M243.011 139.063C244.711 139.547 246.481 138.562 246.965 136.862C247.449 135.162 246.463 133.391 244.763 132.907C243.064 132.424 241.293 133.409 240.809 135.109C240.325 136.809 241.311 138.579 243.011 139.063Z" fill="#BBC0B9"/>
<path d="M237.357 146.118C239.057 146.602 240.827 145.617 241.311 143.917C241.795 142.217 240.809 140.447 239.109 139.963C237.409 139.479 235.639 140.464 235.155 142.164C234.671 143.864 235.657 145.635 237.357 146.118Z" fill="#D8DBD7"/>
<path d="M229.007 116.381C230.707 116.865 232.477 115.879 232.961 114.18C233.445 112.48 232.459 110.709 230.76 110.225C229.06 109.741 227.289 110.727 226.805 112.427C226.321 114.127 227.307 115.897 229.007 116.381Z" fill="#BBC0B9"/>
<path d="M307.406 17.3202C309.105 17.8041 310.876 16.8183 311.36 15.1185C311.844 13.4186 310.858 11.6482 309.158 11.1643C307.458 10.6804 305.688 11.6661 305.204 13.366C304.72 15.0659 305.706 16.8362 307.406 17.3202Z" fill="#BBC0B9"/>
<path d="M317.993 19.8602C319.693 20.3441 321.464 19.3584 321.948 17.6585C322.431 15.9586 321.446 14.1883 319.746 13.7043C318.046 13.2204 316.276 14.2062 315.792 15.906C315.308 17.6059 316.294 19.3763 317.993 19.8602Z" fill="#BBC0B9"/>
<path d="M328.833 22.9452C330.533 23.4291 332.303 22.4433 332.787 20.7435C333.271 19.0436 332.286 17.2732 330.586 16.7893C328.886 16.3054 327.116 17.2911 326.632 18.991C326.148 20.6909 327.133 22.4612 328.833 22.9452Z" fill="#BBC0B9"/>
<path d="M269.427 186.504C271.127 186.988 272.897 186.002 273.381 184.303C273.865 182.603 272.879 180.832 271.179 180.348C269.48 179.864 267.709 180.85 267.225 182.55C266.741 184.25 267.727 186.02 269.427 186.504Z" fill="#BBC0B9"/>
<path d="M272.575 164.688C274.275 165.172 276.046 164.187 276.53 162.487C277.014 160.787 276.028 159.016 274.328 158.532C272.628 158.049 270.858 159.034 270.374 160.734C269.89 162.434 270.876 164.204 272.575 164.688Z" fill="#BBC0B9"/>
<path d="M171.423 74.8499C173.123 75.3339 174.893 74.3481 175.377 72.6482C175.861 70.9483 174.875 69.178 173.176 68.6941C171.476 68.2102 169.705 69.1959 169.221 70.8958C168.738 72.5957 169.723 74.366 171.423 74.8499Z" fill="#BBC0B9"/>
<path d="M157.698 96.0828C159.398 96.5668 161.169 95.5811 161.653 93.8812C162.137 92.1813 161.151 90.4109 159.451 89.927C157.751 89.4431 155.981 90.4288 155.497 92.1287C155.013 93.8286 155.999 95.5989 157.698 96.0828Z" fill="#BBC0B9"/>
<path d="M119.8 74.7098C121.5 75.1937 123.27 74.208 123.754 72.5081C124.238 70.8082 123.252 69.0379 121.553 68.554C119.853 68.07 118.082 69.0558 117.598 70.7557C117.114 72.4556 118.1 74.2259 119.8 74.7098Z" fill="#BBC0B9"/>
<path d="M116.587 84.3753C118.287 84.8593 120.057 83.8735 120.541 82.1737C121.025 80.4738 120.04 78.7034 118.34 78.2195C116.64 77.7356 114.869 78.7213 114.385 80.4212C113.902 82.1211 114.887 83.8914 116.587 84.3753Z" fill="#D8DBD7"/>
<path d="M109.255 39.4769C110.955 39.9608 112.725 38.9751 113.209 37.2752C113.693 35.5753 112.707 33.805 111.008 33.321C109.308 32.8371 107.537 33.8229 107.053 35.5228C106.57 37.2226 107.555 38.993 109.255 39.4769Z" fill="#D8DBD7"/>
<path d="M107.491 81.7889C109.191 82.2728 110.962 81.2871 111.446 79.5872C111.93 77.8873 110.944 76.117 109.244 75.6331C107.544 75.1491 105.774 76.1349 105.29 77.8348C104.806 79.5347 105.792 81.305 107.491 81.7889Z" fill="#D8DBD7"/>
<path d="M1.62236 281.35C3.32225 281.834 5.09255 280.848 5.57648 279.148C6.06041 277.448 5.0747 275.678 3.37481 275.194C1.67492 274.71 -0.0954299 275.696 -0.579358 277.396C-1.06329 279.096 -0.0775305 280.866 1.62236 281.35Z" fill="#D8DBD7"/>
<path d="M-2.55342 269.71C-0.853535 270.194 0.916788 269.208 1.40072 267.509C1.88464 265.809 0.898915 264.038 -0.800973 263.554C-2.50086 263.071 -4.2712 264.056 -4.75512 265.756C-5.23905 267.456 -4.25331 269.226 -2.55342 269.71Z" fill="#D8DBD7"/>
<path d="M5.66923 259.837C7.36912 260.321 9.13943 259.335 9.62336 257.635C10.1073 255.935 9.12157 254.165 7.42168 253.681C5.7218 253.197 3.95145 254.183 3.46752 255.883C2.98359 257.583 3.96934 259.353 5.66923 259.837Z" fill="#D8DBD7"/>
<path d="M7.1614 270.243C8.86129 270.726 10.6316 269.741 11.1155 268.041C11.5995 266.341 10.6138 264.571 8.91387 264.087C7.21398 263.603 5.44363 264.588 4.9597 266.288C4.47578 267.988 5.46152 269.759 7.1614 270.243Z" fill="#D8DBD7"/>
<path d="M10.6009 249.805C12.3008 250.289 14.0711 249.304 14.555 247.604C15.0389 245.904 14.0532 244.134 12.3533 243.65C10.6534 243.166 8.88309 244.151 8.39916 245.851C7.91523 247.551 8.90099 249.322 10.6009 249.805Z" fill="#D8DBD7"/>
<path d="M21.013 251.937C22.7128 252.421 24.4832 251.435 24.9671 249.735C25.451 248.035 24.4653 246.265 22.7654 245.781C21.0655 245.297 19.2952 246.283 18.8113 247.983C18.3273 249.683 19.3131 251.453 21.013 251.937Z" fill="#D8DBD7"/>
<path d="M-2.28003 184.416C-0.58014 184.9 1.19021 183.915 1.67414 182.215C2.15807 180.515 1.17233 178.744 -0.527562 178.261C-2.22745 177.777 -3.99777 178.762 -4.4817 180.462C-4.96563 182.162 -3.97992 183.932 -2.28003 184.416Z" fill="#D8DBD7"/>
<path d="M14.9466 260.809C16.6465 261.293 18.4168 260.308 18.9007 258.608C19.3846 256.908 18.3989 255.138 16.699 254.654C14.9991 254.17 13.2288 255.155 12.7449 256.855C12.2609 258.555 13.2467 260.325 14.9466 260.809Z" fill="#D8DBD7"/>
<path d="M110.277 72.0033C111.977 72.4872 113.747 71.5015 114.231 69.8016C114.715 68.1017 113.729 66.3314 112.029 65.8474C110.329 65.3635 108.559 66.3492 108.075 68.0491C107.591 69.749 108.577 71.5193 110.277 72.0033Z" fill="#BBC0B9"/>
<path d="M150.798 4.12143C152.498 4.60536 154.268 3.61964 154.752 1.91975C155.236 0.219859 154.25 -1.55048 152.551 -2.03441C150.851 -2.51834 149.08 -1.5326 148.596 0.167289C148.112 1.86718 149.098 3.6375 150.798 4.12143Z" fill="#BBC0B9"/>
<path d="M26.8841 41.4554C28.584 41.9393 30.3543 40.9536 30.8382 39.2537C31.3221 37.5538 30.3364 35.7835 28.6365 35.2996C26.9366 34.8156 25.1663 35.8014 24.6824 37.5013C24.1984 39.2012 25.1842 40.9715 26.8841 41.4554Z" fill="#BBC0B9"/>
<path d="M161.417 68.4076C163.117 68.8915 164.887 67.9058 165.371 66.2059C165.855 64.506 164.87 62.7356 163.17 62.2517C161.47 61.7678 159.699 62.7535 159.216 64.4534C158.732 66.1533 159.717 67.9236 161.417 68.4076Z" fill="#BBC0B9"/>
<path d="M131.337 53.1468C133.037 53.6307 134.807 52.645 135.291 50.9451C135.775 49.2452 134.79 47.4749 133.09 46.991C131.39 46.5071 129.619 47.4928 129.135 49.1927C128.652 50.8925 129.637 52.6629 131.337 53.1468Z" fill="#BBC0B9"/>
<path d="M133.154 72.8592C134.853 73.3431 136.624 72.3574 137.108 70.6575C137.592 68.9576 136.606 67.1873 134.906 66.7034C133.206 66.2195 131.436 67.2052 130.952 68.9051C130.468 70.6049 131.454 72.3753 133.154 72.8592Z" fill="#BBC0B9"/>
<path d="M110.853 29.4701C112.553 29.954 114.323 28.9682 114.807 27.2684C115.291 25.5685 114.305 23.7981 112.605 23.3142C110.905 22.8303 109.135 23.816 108.651 25.5159C108.167 27.2158 109.153 28.9861 110.853 29.4701Z" fill="#BBC0B9"/>
<path d="M166.052 142.247C167.752 142.731 169.522 141.746 170.006 140.046C170.49 138.346 169.504 136.575 167.804 136.092C166.105 135.608 164.334 136.593 163.85 138.293C163.366 139.993 164.352 141.763 166.052 142.247Z" fill="#BBC0B9"/>
<path d="M173.318 148.086C175.018 148.57 176.788 147.584 177.272 145.884C177.756 144.184 176.77 142.414 175.07 141.93C173.37 141.446 171.6 142.432 171.116 144.132C170.632 145.832 171.618 147.602 173.318 148.086Z" fill="#BBC0B9"/>
<path d="M191.163 151.241C192.863 151.724 194.634 150.739 195.117 149.039C195.601 147.339 194.616 145.569 192.916 145.085C191.216 144.601 189.446 145.587 188.962 147.286C188.478 148.986 189.463 150.757 191.163 151.241Z" fill="#D8DBD7"/>
<path d="M197.937 157.764C199.637 158.247 201.407 157.262 201.891 155.562C202.375 153.862 201.389 152.092 199.689 151.608C197.989 151.124 196.219 152.109 195.735 153.809C195.251 155.509 196.237 157.28 197.937 157.764Z" fill="#D8DBD7"/>
<path d="M165.669 101.677C167.369 102.161 169.139 101.175 169.623 99.4754C170.107 97.7755 169.122 96.0052 167.422 95.5212C165.722 95.0373 163.951 96.0231 163.468 97.723C162.984 99.4228 163.969 101.193 165.669 101.677Z" fill="#BBC0B9"/>
<path d="M180.824 77.7759L198.506 74.3382" stroke="#BBC0B9" stroke-width="6.40043" stroke-linecap="round" stroke-linejoin="round"/>
<path d="M191.422 92.307L215.219 70.26L230.808 78.93" stroke="#D8DBD7" stroke-width="6.40043" stroke-linecap="round" stroke-linejoin="round"/>
<path d="M217.339 130.246L224.246 121.537" stroke="#BBC0B9" stroke-width="6.40043" stroke-linecap="round" stroke-linejoin="round"/>
<path d="M224.26 84.9015L208.402 103.765" stroke="#D8DBD7" stroke-width="6.40043" stroke-linecap="round" stroke-linejoin="round"/>
<path d="M257.818 137.419L268.69 153.311" stroke="#D8DBD7" stroke-width="6.40043" stroke-linecap="round" stroke-linejoin="round"/>
<path d="M260.301 162.663L266.864 175.093" stroke="#D8DBD7" stroke-width="6.40043" stroke-linecap="round" stroke-linejoin="round"/>
<path d="M227.01 96.2471L241.74 109.637" stroke="#BBC0B9" stroke-width="6.40043" stroke-linecap="round" stroke-linejoin="round"/>
<path d="M149.125 126.213L159.37 132.956" stroke="#D8DBD7" stroke-width="6.40043" stroke-linecap="round" stroke-linejoin="round"/>
<path d="M182.143 151.257L197.848 165.604L205.356 161.939" stroke="#D8DBD7" stroke-width="6.40043" stroke-linecap="round" stroke-linejoin="round"/>
<path d="M180.116 114.309L162.35 106.729" stroke="#D8DBD7" stroke-width="6.40043" stroke-linecap="round" stroke-linejoin="round"/>
<path d="M156.576 75.0497L141.887 97.8932L97.5529 85.2721L100.893 70.8037" stroke="#D8DBD7" stroke-width="6.40043" stroke-linecap="round" stroke-linejoin="round"/>
<path d="M141.272 78.0288L152.528 59.5052L129.505 59.5924" stroke="#BBC0B9" stroke-width="6.40043" stroke-linecap="round" stroke-linejoin="round"/>
<path d="M105.318 -8.9248L103.351 3.33882L111.901 5.77294" stroke="#BBC0B9" stroke-width="6.40043" stroke-linecap="round" stroke-linejoin="round"/>
<path d="M112.695 15.2399L136.365 18.4912" stroke="#D8DBD7" stroke-width="6.40043" stroke-linecap="round" stroke-linejoin="round"/>
<path d="M127.518 -8.62988L124.549 6.4498" stroke="#D8DBD7" stroke-width="6.40043" stroke-linecap="round" stroke-linejoin="round"/>
<path d="M83.0733 46.8809L95.3466 49.2104L101.781 13.7755L89.8746 13.2876" stroke="#D8DBD7" stroke-width="6.40043" stroke-linecap="round" stroke-linejoin="round"/>
<path d="M92.9035 59.9654L91.2379 66.2122L83.227 64.1511L79.3679 82.1717" stroke="#BBC0B9" stroke-width="6.40043" stroke-linecap="round" stroke-linejoin="round"/>
<path d="M104.906 54.7554L119.157 58.8124" stroke="#D8DBD7" stroke-width="6.40043" stroke-linecap="round" stroke-linejoin="round"/>
<path d="M107.657 45.0947L121.908 49.1517L127.134 30.7948L120.005 28.7655" stroke="#D8DBD7" stroke-width="6.40043" stroke-linecap="round" stroke-linejoin="round"/>
<path d="M138.629 29.8086L135.553 40.6118L145.39 47.7844" stroke="#BBC0B9" stroke-width="6.40043" stroke-linecap="round" stroke-linejoin="round"/>
<path d="M74.1465 106.791L88.2679 110.811" stroke="#BBC0B9" stroke-width="6.40043" stroke-linecap="round" stroke-linejoin="round"/>
<path d="M109.76 111.292L115.255 120.976L85.3073 122.033L87.9106 128.504" stroke="#BBC0B9" stroke-width="6.40043" stroke-linecap="round" stroke-linejoin="round"/>
<path d="M26.0262 99.0545L47.0817 102.726L48.7974 96.6994" stroke="#BBC0B9" stroke-width="6.40043" stroke-linecap="round" stroke-linejoin="round"/>
<path d="M52.7633 82.7608L54.0093 78.3839L29.6875 71.46" stroke="#BBC0B9" stroke-width="6.40043" stroke-linecap="round" stroke-linejoin="round"/>
<path d="M46.0605 21.4512L59.2096 30.0793L62.8455 39.9582L56.9018 68.1996" stroke="#BBC0B9" stroke-width="6.40043" stroke-linecap="round" stroke-linejoin="round"/>
<path d="M23.623 -7.54492L59.206 17.7242L71.6192 20.5925" stroke="#BBC0B9" stroke-width="6.40043" stroke-linecap="round" stroke-linejoin="round"/>
<path d="M63.0736 8.29442L71.0322 -1.4053" stroke="#D8DBD7" stroke-width="6.40043" stroke-linecap="round" stroke-linejoin="round"/>
<path d="M-27.2546 182.127L-16.0027 189.986L6.797 190.03" stroke="#BBC0B9" stroke-width="6.40043" stroke-linecap="round" stroke-linejoin="round"/>
<path d="M4.57812 201.245L8.93328 222.179L16.8172 221.648L18.9471 228.8L10.8589 237.014" stroke="#BBC0B9" stroke-width="6.40043" stroke-linecap="round" stroke-linejoin="round"/>
<path d="M-38.2626 215.757L-3.69298 208.469" stroke="#BBC0B9" stroke-width="6.40043" stroke-linecap="round" stroke-linejoin="round"/>
<path d="M-24.0114 238.378L-14.9578 233.248L-9.38758 218.638L1.42642 235.655" stroke="#BBC0B9" stroke-width="6.40043" stroke-linecap="round" stroke-linejoin="round"/>
<path d="M-32.0646 248.539L-15.4511 262.624L-44.2286 285.142L-11.9376 298.295" stroke="#BBC0B9" stroke-width="6.40043" stroke-linecap="round" stroke-linejoin="round"/>
<path d="M-9.35897 255.007L0.533194 245.365" stroke="#BBC0B9" stroke-width="6.40043" stroke-linecap="round" stroke-linejoin="round"/>
<path d="M127.075 84.038L130.011 77.3474" stroke="#BBC0B9" stroke-width="6.40043" stroke-linecap="round" stroke-linejoin="round"/>
<path d="M-9.08416 14.4416L8.46505 6.4211L-4.10064 -10.8248L-18.0515 -5.30037" stroke="#BBC0B9" stroke-width="6.40043" stroke-linecap="round" stroke-linejoin="round"/>
<path d="M364.354 -31.4382L376.447 -27.9957L368.033 1.55863L333.27 -8.33778" stroke="#BBC0B9" stroke-width="6.40043" stroke-linecap="round" stroke-linejoin="round"/>
<path d="M220.156 -9.24609L218.019 4.26701L231.681 -0.38184" stroke="#BBC0B9" stroke-width="6.40043" stroke-linecap="round" stroke-linejoin="round"/>
<path d="M240.947 -4.92432L253.661 -1.30499" stroke="#BBC0B9" stroke-width="6.40043" stroke-linecap="round" stroke-linejoin="round"/>
<path d="M207.183 -2.10006L200.377 11.5677L207.536 13.6058" stroke="#BBC0B9" stroke-width="6.40043" stroke-linecap="round" stroke-linejoin="round"/>
<path d="M334.607 61.2108L348.676 7.87891" stroke="#BBC0B9" stroke-width="6.40043" stroke-linecap="round" stroke-linejoin="round"/>
<path d="M302.958 22.0511L332.052 29.003" stroke="#BBC0B9" stroke-width="6.40043" stroke-linecap="round" stroke-linejoin="round"/>
<path d="M289.015 5.36761L294.062 1.62045L336.93 11.8942" stroke="#BBC0B9" stroke-width="6.40043" stroke-linecap="round" stroke-linejoin="round"/>
<path d="M329.039 39.6005L325.653 51.4936L313.834 36.8225" stroke="#D8DBD7" stroke-width="6.40043" stroke-linecap="round" stroke-linejoin="round"/>
<path d="M360.848 10.6063L403.148 21.3372L394.136 60.2505L349.946 48.9016" stroke="#D8DBD7" stroke-width="6.40043" stroke-linecap="round" stroke-linejoin="round"/>
<path d="M372.834 135.072L403.346 142.174L414.667 137.877L422.331 104.017" stroke="#D8DBD7" stroke-width="6.40043" stroke-linecap="round" stroke-linejoin="round"/>
<path d="M412.064 147.029L400.036 157.273L372.937 159.268" stroke="#D8DBD7" stroke-width="6.40043" stroke-linecap="round" stroke-linejoin="round"/>
<path d="M356.214 180.443L386.624 169.695" stroke="#D8DBD7" stroke-width="6.40043" stroke-linecap="round" stroke-linejoin="round"/>
<path d="M373.898 79.9717L464.64 102.849" stroke="#D8DBD7" stroke-width="6.40043" stroke-linecap="round" stroke-linejoin="round"/>
<path d="M356.123 20.1963L353.425 30.2753L369.656 33.9977" stroke="#D8DBD7" stroke-width="6.40043" stroke-linecap="round" stroke-linejoin="round"/>
<path d="M366.225 22.8535L391.575 28.906L386.832 47.4065" stroke="#D8DBD7" stroke-width="6.40043" stroke-linecap="round" stroke-linejoin="round"/>
<path d="M362.374 41.8414L377.605 45.4453" stroke="#D8DBD7" stroke-width="6.40043" stroke-linecap="round" stroke-linejoin="round"/>
</svg>
